<?xml version="1.0" encoding="UTF-8" standalone="no"?>
<!-- Created with Inkscape (http://www.inkscape.org/) -->

<svg
   width="453.57355"
   height="75.620789"
   viewBox="0 0 120.008 20.008"
   version="1.1"
   id="svg1"
   inkscape:version="1.3.2 (091e20e, 2023-11-25, custom)"
   sodipodi:docname="logo-template.svg"
   inkscape:export-filename="logo-exported.svg"
   inkscape:export-xdpi="96"
   inkscape:export-ydpi="96"
   xmlns:inkscape="http://www.inkscape.org/namespaces/inkscape"
   xmlns:sodipodi="http://sodipodi.sourceforge.net/DTD/sodipodi-0.dtd"
   xmlns:xlink="http://www.w3.org/1999/xlink"
   xmlns="http://www.w3.org/2000/svg"
   xmlns:svg="http://www.w3.org/2000/svg">
  <sodipodi:namedview
     id="namedview1"
     pagecolor="#ffffff"
     bordercolor="#000000"
     borderopacity="0.25"
     inkscape:showpageshadow="2"
     inkscape:pageopacity="0.0"
     inkscape:pagecheckerboard="0"
     inkscape:deskcolor="#d1d1d1"
     inkscape:document-units="mm"
     showgrid="true"
     inkscape:zoom="2.8364759"
     inkscape:cx="223.69307"
     inkscape:cy="72.27278"
     inkscape:window-width="1920"
     inkscape:window-height="992"
     inkscape:window-x="-8"
     inkscape:window-y="-8"
     inkscape:window-maximized="1"
     inkscape:current-layer="layer1">
    <inkscape:grid
       id="grid1"
       units="mm"
       originx="0.0039999951"
       originy="0.0039999951"
       spacingx="1"
       spacingy="1"
       empcolor="#0099e5"
       empopacity="0.30196078"
       color="#0099e5"
       opacity="0.14901961"
       empspacing="5"
       dotted="false"
       gridanglex="30"
       gridanglez="30"
       visible="true" />
  </sodipodi:namedview>
  <defs
     id="defs1">
    <linearGradient
       id="linearGradient1"
       inkscape:collect="always">
      <stop
         style="stop-color:#ffffff;stop-opacity:1;"
         offset="0.62378979"
         id="stop1" />
      <stop
         style="stop-color:#000000;stop-opacity:0;"
         offset="1"
         id="stop2" />
    </linearGradient>
    <radialGradient
       inkscape:collect="always"
       xlink:href="#linearGradient1"
       id="radialGradient2"
       cx="61.912498"
       cy="7.9375"
       fx="61.912498"
       fy="7.9375"
       r="61.9165"
       gradientTransform="matrix(0.96910249,0,0,0.16023605,4.8428421e-4,8.8114676)"
       gradientUnits="userSpaceOnUse" />
  </defs>
  <g
     inkscape:groupmode="layer"
     id="layer3"
     inkscape:label="Layer 3"
     style="display:none"
     transform="translate(0.004,0.004)"
     sodipodi:insensitive="true">
    <rect
       style="opacity:1;fill:#000000;stroke:#000000;stroke-width:0.00799999;paint-order:stroke fill markers"
       id="rect2"
       width="120"
       height="20"
       x="0"
       y="0"
       ry="0" />
  </g>
  <g
     inkscape:label="Layer 1"
     inkscape:groupmode="layer"
     id="layer1"
     style="display:inline"
     transform="translate(0.004,0.004)">
    <path
       style="display:inline;opacity:1;fill:url(#radialGradient2);stroke:#000000;stroke-width:0.0088025;paint-order:stroke fill markers"
       id="path1"
       sodipodi:type="arc"
       sodipodi:cx="60.000042"
       sodipodi:cy="10.083342"
       sodipodi:rx="59.999557"
       sodipodi:ry="9.9162579"
       sodipodi:start="0"
       sodipodi:end="6.2805371"
       sodipodi:arc-type="arc"
       d="M 119.9996,10.083342 A 59.999557,9.9162579 0 0 1 60.039765,19.999597 59.999557,9.9162579 0 0 1 5.3706367e-4,10.096472 59.999557,9.9162579 0 0 1 59.880874,0.1671033 59.999557,9.9162579 0 0 1 119.99939,10.057081"
       sodipodi:open="true" />
    <path
       style="font-size:3.26866px;font-family:'Virgil 3 YOFF';-inkscape-font-specification:'Virgil 3 YOFF, Normal';fill:#0000a0;stroke-width:0.008;paint-order:stroke fill markers"
       d="m 52.875621,9.0798624 q 0.219,-0.2974481 0.434731,-0.3922392 0.127478,-0.078448 0.258224,-0.065373 0.01961,0 0.05884,0.00327 0.03922,0 0.05557,0 h 0.01961 q 0.0065,0 0.04576,0.013075 0.03922,0.00981 0.04576,0.00654 h 0.01308 q 0.0033,-0.00981 0.02615,-0.042493 0.02615,-0.032687 0.03596,-0.039224 0.06864,-0.019612 0.120941,0.062105 0.02288,0.04903 0.04903,0.153627 0.0098,0.026149 0.03596,0.071911 0.147089,0.1863136 0.147089,0.4445377 0,0.013075 -0.0033,0.062105 0,0.045761 0,0.052299 -0.03922,0.1045972 -0.124209,0.1045972 -0.127478,-0.029418 -0.143821,-0.042493 l -0.0065,-0.00654 q -0.0065,-0.00327 -0.0098,-0.00654 l -0.0033,-0.00654 q -0.04576,-0.1176717 -0.08499,-0.2909107 -0.01634,-0.07191 -0.03922,-0.1013285 -0.01961,-0.016343 -0.06211,-0.062104 -0.03922,-0.045761 -0.07518,-0.068642 -0.03596,-0.022881 -0.08172,-0.016343 -0.05557,0 -0.111134,0.019612 -0.0523,0.016343 -0.08825,0.039224 -0.03596,0.019612 -0.08825,0.068642 -0.04903,0.045761 -0.07518,0.07191 -0.02288,0.026149 -0.07518,0.091522 -0.0523,0.062105 -0.06864,0.081717 -0.297448,0.5001049 -0.03922,0.7648661 0.173239,0.215732 0.53606,0.310523 0.03269,0.01308 0.03596,0.01634 0.0098,0 0.143821,-0.0098 0.137283,-0.01307 0.222269,-0.02942 0.05557,-0.01307 0.117671,-0.01307 0.04576,0 0.130747,0.01307 0.08825,0.0098 0.107866,0.02942 0.02615,0.03269 0.02615,0.07518 0,0.03922 -0.02615,0.06864 -0.07191,0.05884 -0.101329,0.0621 -0.248418,0.08172 -0.408582,0.09479 -0.19612,0 -0.41512,-0.06537 -0.219,-0.06864 -0.369359,-0.179776 -0.143821,-0.08172 -0.254955,-0.222269 -0.107866,-0.140553 -0.140553,-0.2941797 -0.07191,-0.346478 0.228807,-0.826971 z m 2.824119,0.8040903 q -0.09152,0.039224 -0.176508,0.1078658 -0.08172,0.068642 -0.12094,0.1144035 -0.03596,0.04576 -0.124209,0.166701 -0.08499,0.120941 -0.107866,0.150359 -0.05557,0.150358 -0.163433,0.245149 -0.04576,0.02288 -0.08172,0.02288 -0.07191,0 -0.104597,-0.06211 -0.0065,-0.0098 -0.02288,-0.02942 -0.01634,-0.01961 -0.02942,-0.03595 l -0.0098,-0.01634 q 0,-0.0098 -0.0033,-0.04249 0,-0.03596 0,-0.05557 0,-0.02288 0.0033,-0.04903 0.0065,-0.02615 0.01961,-0.03922 0.01307,-0.107866 0.01634,-0.232075 0.0065,-0.124209 0.0033,-0.2059253 -0.0033,-0.084985 -0.0098,-0.2353436 -0.0065,-0.1503583 -0.0098,-0.2124629 0.0065,-0.084985 -0.0098,-0.2712987 -0.01634,-0.1863137 -0.0098,-0.2680302 V 8.7497277 q -0.0033,-0.039224 0.03595,-0.045761 0.04249,-0.00654 0.06864,0.00327 0.0033,0.00327 0.02942,0.029418 0.02615,0.026149 0.04576,0.052299 0.02288,0.022881 0.02615,0.042493 0.08825,0.4216572 0.08498,0.5589409 0,0.032687 0.0098,0.3007167 0.0098,0.2680301 0.0098,0.2974481 v 0.062104 h 0.01961 q 0.02615,-0.02288 0.219001,-0.218999 0.192851,-0.1993883 0.320328,-0.2745675 0.05884,-0.022881 0.130747,-0.022881 0.107865,0 0.176507,0.081716 0.111135,0.1209404 0.163433,0.2680301 0.0523,0.1438214 0.08499,0.3530144 0.09479,0.290911 0.08499,0.431464 l -0.0098,0.01961 q -0.0065,0.01634 -0.01308,0.02288 -0.01961,0.02288 -0.05557,0.02288 -0.02615,0 -0.08825,-0.02288 -0.09806,-0.120941 -0.166702,-0.307254 -0.07845,-0.232075 -0.08172,-0.26803 -0.0523,-0.2222694 -0.153627,-0.2516874 z m 1.918701,0.3072543 q -0.02615,0.01961 -0.0621,0.08172 -0.173239,0.189583 -0.339941,0.303986 -0.163433,0.111134 -0.356284,0.107865 -0.101328,0.01307 -0.209194,-0.02615 -0.107866,-0.04249 -0.16997,-0.117672 -0.02942,-0.04576 -0.04249,-0.0621 -0.0098,-0.01961 -0.03269,-0.05884 -0.02288,-0.04249 -0.03269,-0.06864 -0.0065,-0.02615 -0.01634,-0.0621 -0.0098,-0.03596 -0.0098,-0.06864 0,-0.03596 0.0098,-0.07191 0.0033,-0.111134 0.07191,-0.2255373 0.07191,-0.1144031 0.143821,-0.183045 0.07191,-0.068642 0.186314,-0.163433 0.02288,-0.016343 0.03269,-0.026149 0.137284,-0.1111344 0.372628,-0.1111344 0.04903,0 0.310522,0.026149 0.0065,0.00654 0.04249,0.022881 0.03922,0.016343 0.05557,0.035955 0.01634,0.016343 0.0033,0.045761 l 0.04249,0.042493 q 0.09806,0.042493 0.12421,0.081717 0.163433,0.3334037 0.287642,0.5360607 0.01307,0.01634 0.08172,0.07518 0.07191,0.05557 0.08498,0.07191 0.02615,0.01961 0.06211,0.05557 0.03922,0.03269 0.06537,0.04903 0.02615,0.01634 0.05884,0.01961 0.0033,0.0033 0.04249,0.03922 0.0033,0.0098 -0.0033,0.02615 -0.0033,0.01307 -0.0098,0.03269 -0.0065,0.01961 -0.0098,0.02615 -0.03269,0.04903 -0.143821,0.07845 -0.03922,0 -0.05557,0.0033 -0.01308,0.0065 -0.04576,-0.0065 -0.02942,-0.0098 -0.04249,-0.01634 -0.0098,-0.0033 -0.04249,-0.02288 -0.03269,-0.01961 -0.04903,-0.02942 l -0.01307,-0.0065 q -0.08172,-0.06864 -0.225538,-0.235344 -0.140552,-0.16997 -0.166702,-0.199388 z m -0.95118,0.101328 q 0.05884,0.08825 0.176508,0.08825 0.05557,0 0.153627,-0.02615 0.160164,-0.05884 0.290911,-0.205926 0.127478,-0.1765074 0.143821,-0.3105225 0,-0.00981 0.01308,-0.075179 0.01307,-0.068642 0.0098,-0.094791 -0.06537,0.016343 -0.189582,0.026149 -0.12094,0.00654 -0.186313,0.019612 -0.08499,0.013075 -0.173239,0.081716 -0.08825,0.065373 -0.134015,0.1242091 -0.04576,0.058836 -0.12421,0.1667024 -0.05557,0.06864 0.01961,0.205925 z m 2.699913,-0.5197167 q -0.215731,0.183045 -0.392239,0.4543437 -0.0065,0.01308 -0.08499,0.143821 -0.07518,0.127478 -0.101329,0.186314 -0.03596,0.05884 -0.104597,0.04249 L 58.540203,10.4527 v -0.101329 q 0.01634,-0.08498 0.03596,-0.330135 0.01961,-0.245149 0.02615,-0.2909103 0,-0.016343 -0.0033,-0.029418 l -0.01308,-0.084985 q -0.0033,-0.013075 -0.0033,-0.029418 V 9.57343 q 0,-0.052299 0.03269,-0.084985 0.03596,-0.032687 0.08825,-0.029418 0.104597,0 0.14709,0.065373 0.02288,0.088254 0.02288,0.2288062 0,0.029418 -0.0033,0.075179 0,0.042493 0,0.045761 0.02615,-0.019612 0.104597,-0.09806 0.08172,-0.081717 0.101328,-0.1078658 0.02288,-0.029418 0.05557,-0.078448 0.03596,-0.052298 0.06864,-0.088254 0.03269,-0.039224 0.07845,-0.075179 0.01634,-0.022881 0.03922,-0.032687 0.02288,-0.013075 0.04249,-0.013075 0.02288,-0.00327 0.04903,-0.00327 0.02615,0 0.0523,0 0.03596,-0.013075 0.07191,0.00654 0.03922,0.016343 0.08172,0.07191 0.04249,0.052299 0.0523,0.071911 0.01308,0.019612 0.0523,0.081716 0.101329,0.2353435 0.101329,0.5131796 l 0.0621,0.26803 q 0,0.0098 0.01961,0.06537 0.02288,0.05557 0.02288,0.05884 0.0065,0.08825 -0.04249,0.124209 -0.0098,0.0033 -0.04903,0.01961 -0.03596,0.01307 -0.05557,0.01307 -0.03269,0 -0.03922,-0.03269 -0.0065,-0.0098 -0.04576,-0.07191 -0.03596,-0.06537 -0.05884,-0.09152 -0.0621,-0.215731 -0.08172,-0.41512 -0.0098,-0.02288 -0.02942,-0.098059 -0.01634,-0.078448 -0.03269,-0.1078658 -0.06864,-0.078448 -0.09152,-0.084985 -0.02615,0 -0.03269,0.00327 z m 0.876004,1.6114497 q 0.07518,-0.05884 0.150359,-0.05884 0.05883,0 0.09806,0.03922 0.01634,0.01634 0.08498,0.09806 0.06864,0.08498 0.120941,0.124209 0.0523,0.03922 0.114403,0.04903 0.0098,0 0.01308,-0.0033 0.06864,-0.03269 0.09806,-0.114403 0.02942,-0.08172 0.03922,-0.205926 0.01308,-0.124209 0.02615,-0.173239 0.01307,-0.08498 0.03596,-0.277836 0.02615,-0.192851 0.04249,-0.277836 h -0.03595 q -0.16997,0.03922 -0.333403,0.03922 -0.156896,0 -0.330135,-0.03922 -0.134015,-0.07845 -0.232075,-0.19612 -0.09479,-0.12094 -0.09806,-0.261492 0.01307,-0.1438214 0.150358,-0.2843738 0.137284,-0.1438211 0.284373,-0.2091943 0.120941,-0.1013284 0.300717,-0.1013284 0.232075,0 0.339941,0.1601643 0,0.019612 0,0.062105 0.0033,0.039224 0,0.062105 0,0.019612 -0.01961,0.039224 -0.01961,0.019612 -0.0621,0.022881 -0.03922,-0.022881 -0.212463,-0.042493 -0.205925,-0.013075 -0.408582,0.2288062 -0.01634,0.01634 -0.02288,0.03595 -0.0065,0.01961 0,0.03922 0.0065,0.01961 0.01307,0.03595 0.0098,0.01634 0.02615,0.03596 0.01961,0.01634 0.02942,0.02942 0.01308,0.0098 0.03269,0.02942 0.01961,0.01634 0.02615,0.02288 0.09806,0.03922 0.215731,0.03922 0.104598,0 0.212463,-0.03269 0.111135,-0.03596 0.199389,-0.114404 0.08825,-0.07845 0.09479,-0.183044 0.02942,-0.1438215 0.166701,-0.1863141 h 0.0098 q 0.0065,0.00327 0.02942,0.00981 0.02615,0.00654 0.03269,0.00981 0.0065,0 0.02615,0.00654 0.01961,0.00654 0.02615,0.00981 0.0098,0.00327 0.02288,0.013075 0.01634,0.00654 0.01961,0.016343 0.0065,0.00654 0.01308,0.019612 0.0098,0.00981 0.0098,0.022881 0,0.00981 0,0.026149 0,0.016343 -0.0033,0.032687 0.0065,0.098059 -0.08825,0.2712981 -0.09152,0.169971 -0.107866,0.241881 -0.143821,0.46415 -0.199388,0.911956 -0.02288,0.281105 -0.101328,0.411852 -0.09806,0.147089 -0.160165,0.189582 -0.04903,0.02942 -0.107865,0.03922 -0.163433,-0.06537 -0.395508,-0.248418 -0.07191,-0.03596 -0.111135,-0.05884 -0.03596,-0.02288 -0.07845,-0.06864 -0.04249,-0.04576 -0.05883,-0.101329 -0.0065,-0.137283 0.0621,-0.186313 z M 61.96576,9.7303257 q 0.235344,-0.3007167 0.516449,-0.3922392 0.179776,-0.022881 0.189582,-0.022881 0.202657,0.00654 0.353015,0.1242091 0.150359,0.1144031 0.160165,0.3137913 0.0033,0.173239 -0.140553,0.3170601 -0.140552,0.143821 -0.313791,0.156896 -0.06537,0.02288 -0.140553,0.02288 -0.16997,0 -0.375895,-0.124209 -0.06211,-0.0621 -0.08172,-0.0621 -0.01307,-0.0065 -0.02288,0 -0.107865,0.163433 -0.104597,0.248418 0.03596,0.212463 0.228807,0.359553 0.19285,0.150358 0.408582,0.137284 0.03269,0.01307 0.114403,0 0.08172,-0.0098 0.107866,-0.01634 0.02942,-0.0065 0.111134,-0.03269 0.08499,-0.02288 0.117672,-0.03269 0.114403,-0.04576 0.303985,-0.05884 h 0.02288 q 0.02288,-0.0065 0.04249,0.0098 0.01961,0.01634 0.02288,0.04903 v 0.12094 q -0.117671,0.134016 -0.29091,0.143822 -0.03596,0.0098 -0.130747,0.03595 -0.09152,0.02615 -0.140552,0.03595 -0.04576,0.01308 -0.124209,0.02288 -0.07518,0.01307 -0.137284,0.0098 -0.287642,0.01307 -0.552404,-0.14709 -0.24188,-0.124209 -0.372627,-0.431463 -0.04903,-0.192851 0.01634,-0.375896 0.06537,-0.1830455 0.212463,-0.4118517 z m 0.254956,0.1568957 q 0.06864,0 0.117672,0.00981 0.02942,0.016343 0.05557,0.026149 0.02942,0.00654 0.06864,0.013075 0.04249,0.00327 0.05557,0.00327 0.01308,0 0.06864,0 0.05884,0 0.0621,0 0.169971,-0.052299 0.225538,-0.1470897 0.0098,-0.035955 0,-0.062105 -0.0065,-0.029418 -0.03596,-0.04903 -0.02942,-0.019612 -0.05557,-0.029418 -0.02615,-0.00981 -0.07191,-0.022881 -0.04249,-0.016343 -0.06211,-0.022881 -0.07845,0 -0.160164,0.045761 -0.08172,0.042493 -0.130746,0.084985 -0.04903,0.042493 -0.124209,0.1176718 0,0.00327 -0.0065,0.016343 -0.0065,0.00981 -0.0065,0.016343 z m 3.206558,0.6929556 q 0.0098,-0.01307 0.09152,-0.156895 0.0065,-0.01634 0.02288,-0.05557 0.01961,-0.03922 0.02288,-0.04903 0.0065,-0.01308 0.01961,-0.04903 0.01634,-0.03922 0.01634,-0.04903 0.0033,-0.01308 0.0098,-0.04903 0.0098,-0.03922 0.0033,-0.0523 -0.0033,-0.01307 0,-0.05557 -0.0033,-0.0621 -0.03595,-0.088254 -0.03269,-0.026149 -0.114403,-0.039224 -0.08172,-0.013075 -0.09806,-0.019612 -0.02615,-0.013075 -0.05884,-0.016343 -0.03269,-0.00654 -0.05884,-0.00654 -0.02288,0 -0.06864,0.00327 -0.04249,0 -0.05884,0 0.0523,0.130747 0.0065,0.297448 -0.04576,0.166702 -0.173239,0.238613 -0.313792,0.215731 -0.725643,0.209194 -0.183045,0.01961 -0.362821,-0.06864 -0.176508,-0.09152 -0.297448,-0.241881 -0.228806,-0.323597 -0.04249,-0.6831502 0.130747,-0.3007167 0.558941,-0.5981648 0.03596,-0.035955 0.08172,-0.07191 0.04576,-0.039224 0.07845,-0.065373 0.03269,-0.026149 0.09806,-0.065373 0.06537,-0.042493 0.08825,-0.055567 0.02615,-0.016343 0.101329,-0.062105 0.07845,-0.045761 0.09152,-0.052299 l 0.124209,-0.062105 0.03922,-0.042492 q 0.06537,-0.042493 0.166702,-0.081717 0.06864,-0.013075 0.140552,0.026149 0.07191,0.035955 0.107866,0.09806 0.01961,0.1993883 -0.143821,0.2876421 -0.140553,0.1144031 -0.310523,0.1242091 h -0.0621 q -0.07845,0.022881 -0.143821,0.052299 -0.06537,0.029418 -0.14709,0.088254 -0.07845,0.058836 -0.107866,0.081717 -0.02615,0.019612 -0.130746,0.1111344 -0.101329,0.091522 -0.111135,0.1013285 -0.137284,0.1307464 -0.209194,0.2451495 -0.07191,0.1111344 -0.0621,0.2516868 0.01634,0.1601636 0.153627,0.2745666 0.137284,0.111135 0.300717,0.117672 0.166702,0.02615 0.496836,-0.101328 0.07191,-0.03269 0.104598,-0.09479 0.03269,-0.06537 -0.0033,-0.134016 -0.09152,-0.091522 -0.12094,-0.1438201 -0.06211,-0.029418 -0.183045,-0.04903 -0.120941,-0.019612 -0.169971,-0.035955 -0.03922,-0.039224 -0.05557,-0.058836 -0.01634,-0.019612 -0.02615,-0.055567 -0.0098,-0.035955 -0.0033,-0.081717 -0.0065,-0.1536271 0.08498,-0.1961196 0.02615,0.00327 0.07845,0 0.05557,-0.00327 0.08825,0 0.03269,0 0.07191,0.016343 0.04249,0.013075 0.07191,0.045761 0.01961,0.019612 0.04249,0.019612 0.01961,0.00654 0.156895,0.035955 0.140553,0.029418 0.173239,0.04903 0.05884,0.00981 0.176508,0.022881 0.12094,0.013075 0.192851,0.022881 0.07518,0.00981 0.16997,0.035955 0.09479,0.026149 0.163433,0.062105 0.08825,0.052298 0.14709,0.1470897 0.05884,0.094791 0.0621,0.19612 -0.05884,0.346478 -0.186313,0.588359 -0.01634,0.03595 -0.04576,0.127478 -0.02615,0.09479 -0.05884,0.160164 -0.02942,0.06864 -0.08172,0.101328 l -0.01961,0.0033 q -0.01634,0 -0.02288,0 -0.02288,0.0065 -0.04576,-0.0065 -0.01961,-0.01308 -0.04576,-0.04249 -0.02615,-0.02942 -0.03269,-0.03595 -0.0065,-0.222269 0.01961,-0.369359 z m 1.935045,-0.8400453 0.01634,0.00327 q 0.01307,-0.1340151 0.05557,-0.1797763 0.03596,-0.045761 0.05884,-0.045761 0.0098,0 0.02288,0 0.02288,-0.00327 0.03922,0.00327 0.01961,0.00654 0.04576,0.032687 0.02942,0.022881 0.03922,0.029418 0.0523,0.084985 0.04249,0.2059256 0,0.00654 -0.06211,0.153627 -0.02288,0.12094 -0.0065,0.248418 0.01634,0.124209 0.09152,0.225537 0.0621,0.143821 0.0098,0.209195 -0.01308,0.03269 -0.04903,0.03269 -0.01961,0 -0.04903,-0.0098 -0.02615,-0.0098 -0.06211,-0.02615 -0.03596,-0.01634 -0.04903,-0.01961 -0.117671,-0.07845 -0.150358,-0.258224 -0.130746,0.140552 -0.251687,0.205925 -0.117672,0.06211 -0.320329,0.107866 -0.107865,0.01307 -0.212462,-0.02615 -0.101329,-0.03922 -0.150359,-0.07845 -0.04903,-0.03922 -0.166701,-0.143821 -0.04576,-0.0621 -0.07518,-0.117672 -0.02615,-0.05557 -0.03922,-0.12094 -0.0098,-0.06537 -0.01307,-0.09479 -0.0033,-0.03269 0,-0.1209403 0.0033,-0.091522 0.0033,-0.1242091 0.01961,-0.019612 0.01961,-0.062105 v -0.019612 q -0.0098,-0.04903 0.04249,-0.2288062 0.0065,-0.013075 0.03596,-0.042493 0.03269,-0.032687 0.04576,-0.039224 0.02942,-0.00654 0.104598,0.00654 0.07518,0.013075 0.08172,0.013075 0.02615,0.00654 0.03922,0.022881 0.01634,0.016343 0.01961,0.042492 0.0065,0.022881 0.0065,0.042493 0,0.019612 -0.0033,0.052299 0,0.032687 0,0.045761 0,0.00654 -0.0098,0.022881 l -0.0098,0.019612 q -0.06537,0.1405524 -0.06537,0.2941796 -0.0098,0.08498 0.04249,0.176507 0.0523,0.08825 0.127478,0.150359 0.156895,0.03595 0.192851,0.03595 0.06864,0 0.137283,-0.03595 0.0523,-0.01961 0.09806,-0.0523 0.04903,-0.03595 0.07845,-0.06537 0.03269,-0.03269 0.07191,-0.09152 0.04249,-0.05884 0.05884,-0.08498 0.01634,-0.02942 0.05884,-0.1045967 0.04249,-0.075179 0.05557,-0.094791 0,-0.016343 0,-0.04903 0.0033,-0.032687 0.0033,-0.045761 z m 1.823915,0.4510753 q -0.02615,0.01961 -0.0621,0.08172 -0.173239,0.189583 -0.339941,0.303986 -0.163433,0.111134 -0.356284,0.107865 -0.101328,0.01307 -0.209194,-0.02615 -0.107866,-0.04249 -0.16997,-0.117672 -0.02942,-0.04576 -0.04249,-0.0621 -0.0098,-0.01961 -0.03269,-0.05884 -0.02288,-0.04249 -0.03269,-0.06864 -0.0065,-0.02615 -0.01634,-0.0621 -0.0098,-0.03596 -0.0098,-0.06864 0,-0.03596 0.0098,-0.07191 0.0033,-0.111134 0.07191,-0.2255373 0.07191,-0.1144031 0.143821,-0.183045 0.07191,-0.068642 0.186314,-0.163433 0.02288,-0.016343 0.03269,-0.026149 0.137284,-0.1111344 0.372628,-0.1111344 0.04903,0 0.310522,0.026149 0.0065,0.00654 0.04249,0.022881 0.03922,0.016343 0.05557,0.035955 0.01634,0.016343 0.0033,0.045761 l 0.04249,0.042493 q 0.09806,0.042493 0.124209,0.081717 0.163433,0.3334037 0.287643,0.5360607 0.01307,0.01634 0.08172,0.07518 0.07191,0.05557 0.08499,0.07191 0.02615,0.01961 0.06211,0.05557 0.03922,0.03269 0.06537,0.04903 0.02615,0.01634 0.05884,0.01961 0.0033,0.0033 0.04249,0.03922 0.0033,0.0098 -0.0033,0.02615 -0.0033,0.01307 -0.0098,0.03269 -0.0065,0.01961 -0.0098,0.02615 -0.03269,0.04903 -0.143821,0.07845 -0.03922,0 -0.05557,0.0033 -0.01308,0.0065 -0.04576,-0.0065 -0.02942,-0.0098 -0.04249,-0.01634 -0.0098,-0.0033 -0.04249,-0.02288 -0.03269,-0.01961 -0.04903,-0.02942 l -0.01307,-0.0065 q -0.08172,-0.06864 -0.225538,-0.235344 -0.140552,-0.16997 -0.166702,-0.199388 z m -0.95118,0.101328 q 0.05884,0.08825 0.176508,0.08825 0.05557,0 0.153627,-0.02615 0.160164,-0.05884 0.290911,-0.205926 0.127477,-0.1765074 0.143821,-0.3105225 0,-0.00981 0.01307,-0.075179 0.01308,-0.068642 0.0098,-0.094791 -0.06537,0.016343 -0.189582,0.026149 -0.12094,0.00654 -0.186314,0.019612 -0.08499,0.013075 -0.173239,0.081716 -0.08825,0.065373 -0.134015,0.1242091 -0.04576,0.058836 -0.124209,0.1667024 -0.05557,0.06864 0.01961,0.205925 z m 1.915434,-0.5066421 q 0.02288,-0.143821 0.09806,-0.2484181 0.07518,-0.1045971 0.212463,-0.2288062 0.117672,-0.058836 0.303986,-0.058836 0.228806,0 0.375896,0.078448 0.277836,0.173239 0.395508,0.2909108 0,0.00981 0.0033,0.04903 0.0033,0.039224 -0.0033,0.065373 -0.0033,0.026149 -0.02288,0.029418 -0.104597,0.016343 -0.212463,-0.032687 -0.02615,-0.016343 -0.08499,-0.04903 -0.05884,-0.035955 -0.08825,-0.052298 -0.02942,-0.016343 -0.07845,-0.032687 -0.04903,-0.016343 -0.09479,-0.019612 -0.02615,0 -0.08499,0 -0.05884,-0.00327 -0.09479,0 -0.03269,0 -0.08172,0.00981 -0.04903,0.00981 -0.08825,0.032687 l -0.01961,0.019612 q -0.117671,0.1568957 -0.147089,0.2418809 0.0065,0.09806 0,0.1765077 -0.0065,0.07518 -0.0033,0.173239 0.0065,0.09806 0.02615,0.173239 0.02288,0.03922 0.02615,0.07845 0.0033,0.03595 -0.01634,0.08498 -0.01961,0.04903 -0.02942,0.06864 -0.0065,0.01634 -0.04249,0.07518 -0.02942,0.03922 -0.07191,0.03922 -0.04576,0 -0.09479,-0.03922 -0.07845,-0.04903 -0.124209,-0.183045 0,-0.516449 0.04249,-0.7419859 z m 1.307465,0.3170601 v -0.02288 q 0.03269,-0.2614925 0.248418,-0.4608807 0.215732,-0.2026569 0.473956,-0.1601644 0.12094,0.00654 0.215732,0.091522 0.09806,0.084985 0.09479,0.1993883 0,0.032687 -0.01961,0.042493 -0.01961,0.00654 -0.05557,0.00327 -0.03596,-0.00654 -0.04903,-0.00327 -0.166702,-0.058836 -0.310523,-0.042493 -0.333403,0.1699703 -0.330135,0.4347308 -0.02615,0.107866 0.04576,0.169971 0.07191,0.0621 0.179777,0.0621 0.07518,0 0.127478,-0.02615 0.349746,-0.183045 0.578552,-0.7027614 0,-0.071911 0.0033,-0.1307464 l 0.01308,-0.3987765 q 0.0033,-0.058836 0.0033,-0.1307464 0.02942,-0.31706 0.06211,-0.4151198 0.0033,-0.045761 0.01634,-0.1209404 0.01308,-0.078448 0.02615,-0.1601644 0.01634,-0.084985 0.01961,-0.1111344 0.01308,-0.094791 0.104598,-0.1242091 0.0523,0.00327 0.114403,0.035955 0.0621,0.029418 0.06864,0.068642 0.01634,0.039224 0.01961,0.088254 0.0065,0.04903 0.0033,0.088254 -0.0033,0.039224 0,0.091522 -0.0033,0.022881 0.0065,0.1274778 0.01308,0.1013284 0.01308,0.1209404 0,0.1209404 -0.04249,0.4739557 -0.0098,0.068642 -0.0621,0.1961196 -0.0523,0.1274778 -0.06211,0.1961196 v 0.2091943 q 0.0033,0.00327 0.0033,0.00981 l 0.01634,0.039224 0.0033,0.00981 0.06211,0.2091934 q 0.01961,0.07845 0.04903,0.153627 0.02942,0.07191 0.07518,0.179777 0.04576,0.104597 0.0621,0.140552 0.0065,0.101329 -0.04249,0.140552 -0.01308,0.01961 -0.03596,0.01961 -0.01634,0 -0.107865,-0.05557 -0.03269,-0.03269 -0.06537,-0.07518 -0.02942,-0.04576 -0.04903,-0.08172 -0.01961,-0.03596 -0.04903,-0.09806 -0.02615,-0.06537 -0.03596,-0.09152 -0.0098,-0.02942 -0.03596,-0.101328 -0.02615,-0.07518 -0.03269,-0.09152 -0.04249,0.02615 -0.140552,0.153627 -0.09479,0.124209 -0.107866,0.137284 -0.235343,0.241881 -0.434732,0.307254 -0.199388,0.02615 -0.24188,0.02615 -0.160165,0 -0.254956,-0.08498 -0.04576,-0.03595 -0.08172,-0.08498 -0.0523,-0.08499 -0.06537,-0.219 -0.0098,-0.134015 0.0033,-0.232075 z"
       id="text2"
       aria-label="ChangeGuard" />
  </g>
</svg>
